# xmcd
#
# Track frame offsets:
#	150
#	13037
#	35529
#	53299
#	66094
#	83153
#	95445
#	118619
#	135144
#	148228
#	159354
#	171954
#	182305
#	193861
#	207805
#	220002
#	234875
#
# Disc length: 3242 seconds
#
# Revision: 1
# Processed by: cddbd v1.5.2PL0 Copyright (c) Steve Scherf et al.
# Submitted via: audiograbber 1.83.01
#
DISCID=d70ca811
DTITLE=Donovan - Donovan - The Album [CD 2)
DYEAR=2017
DGENRE=Blues
TTITLE0=Atlantis (Live)
TTITLE1=Hurdy Gurdy Man (Live)
TTITLE2=Universal Soldier (Live)
TTITLE3=Mellow Yellow (Live)
TTITLE4=Sunshine Superman (Live)
TTITLE5=Jennifer Juniper (Live)
TTITLE6=Isle Of Islay (Live)
TTITLE7=Josie (Live)
TTITLE8=Lalena (Live)
TTITLE9=Hey Gyp (Live)
TTITLE10=Madrigalinda
TTITLE11=Harmony
TTITLE12=Ramblin' Boy
TTITLE13=Remember The Alamo
TTITLE14=Split Wood, Not Atoms
TTITLE15=Catch The Wind (Live) Bonus Track
TTITLE16=Fair Ye Well (Acapella Version) Bonus Track
EXTD=
EXTT0=
EXTT1=
EXTT2=
EXTT3=
EXTT4=
EXTT5=
EXTT6=
EXTT7=
EXTT8=
EXTT9=
EXTT10=
EXTT11=
EXTT12=
EXTT13=
EXTT14=
EXTT15=
EXTT16=
PLAYORDER=
